<svg height="16" viewBox="0 0 16 16" width="16" xmlns="http://www.w3.org/2000/svg"><path d="m4.94597591 15.406319c.27890623-.8737103.55320149-1.8230226.90105309-2.7453141.70983868-.0999912 1.67532756-.3709233 2.66601408-.6462984l1.73370142-.4819066c.036331.6480814.1353407 1.2095931.2128265 1.649037.2257058 1.1590517.6643413 1.7374385 1.1471667 2.0018347-1.0729494.5456854-2.28525099.8529823-3.56864762.8529823-1.09683518 0-2.14174254-.2244497-3.09211417-.6303349zm-1.65278276-.9571361c-1.9409095-1.4618839-3.19768372-3.7982026-3.19768372-6.43085597 0-4.42839968 3.55601448-8.01832693 7.94258065-8.01832693.70276213 0 1.38420688.09214101 2.03312722.26510911-2.16412983 2.76898712-4.57674111 7.67224168-5.82288499 10.99122509-.35707173.0377888-.56295761.0489194-.9243341.0622947-.67235771.0178644-.74731966.1821178-.46394796.610431.10142153.1331523.38846703.4349548.89798653.6723565-.18677392.5615578-.28997635 1.0076893-.37659067 1.4005507-.03656826.1568142-.06567977.3059055-.08825296.4472158zm9.66053595-12.72945196c1.8435539 1.46836023 3.0269416 3.74396266 3.0269416 6.29859599 0 2.70832027-1.330056 5.10302667-3.3667205 6.55472617-.1401574-1.1260793-.2249826-2.3005609-.2844111-3.4578512l.907746-.0090246c.4664718-.0067337.6256362-.1354891.4307717-.5038908-.2667836-.4815834-.6005506-.9010106-1.3325441-1.07401156.0267546-2.64784025.2845927-5.31125416.5541951-7.17121933.0501808-.22760801.0679755-.44105609.0640213-.63732467zm-2.8661102 7.63466245c-.66360028.14323936-1.19002487.34097715-2.01337641.59107117-.45667822.15921084-.94258574.29734694-1.42849325.43548304 1.11929957-2.76777844 2.47026511-5.52394835 3.70850156-7.76189518-.2821946 2.01691339-.3419912 4.57164413-.2666319 6.73534097z" fill-rule="evenodd"/></svg>