<?xml version="1.0" encoding="UTF-8"?>
<svg width="512px" height="512px" viewBox="0 0 512 512" version="1.1" xmlns="http://www.w3.org/2000/svg" xmlns:xlink="http://www.w3.org/1999/xlink">
    <!-- Generator: Sketch 52.6 (67491) - http://www.bohemiancoding.com/sketch -->
    <title>Twitter white</title>
    <desc>Created with Sketch.</desc>
    <g id="Twitter-white" stroke="none" stroke-width="1" fill="none" fill-rule="evenodd">
        <g id="twitter" transform="translate(25.000000, 67.000000)" fill="#FFFFFF">
            <path d="M146.209732,377 C321.755034,377 417.719799,231.928159 417.719799,106.157721 C417.719799,102.110652 417.719799,97.9079273 417.407718,93.7052023 C436.13255,80.4744013 452.204698,63.6635012 465,44.6734104 C447.83557,52.1449216 429.578859,57.125929 410.385906,59.6164327 C429.89094,47.78654 445.026846,29.1077622 452.204698,7.0045417 C433.791946,17.9004955 413.194631,25.6833196 391.661074,30.0417011 C374.184564,11.3629232 349.530201,0 321.911074,0 C269.325503,0 226.72651,42.6498761 226.72651,94.9504542 C226.72651,102.733278 227.350671,109.893476 229.067114,116.742362 C149.798658,112.85095 79.2684564,75.0264244 32.4563758,17.433526 C24.1862416,31.4426094 19.5050336,47.78654 19.5050336,65.2200661 C19.5050336,97.9079273 36.3573826,127.482659 61.9479866,144.293559 C46.3439597,143.82659 31.5201342,139.623865 18.7248322,132.463666 L18.7248322,133.553262 C18.7248322,179.471924 51.4932886,218.074732 95.1845638,226.947151 C87.3825503,228.970685 78.8003356,230.060281 70.2181208,230.060281 C63.9765101,230.060281 57.7348993,229.437655 52.1174497,228.503716 C64.2885906,266.172585 99.5536913,293.879438 141.060403,294.502064 C108.604027,320.029727 67.409396,335.284063 22.7818792,335.284063 C14.9798658,335.284063 7.48993289,334.817093 0,333.727498 C42.1308725,360.967382 92.3758389,376.688687 146.209732,376.688687" id="Path"></path>
        </g>
    </g>
</svg>