<?xml version="1.0" encoding="UTF-8"?>
<svg width="512px" height="512px" viewBox="0 0 512 512" version="1.1" xmlns="http://www.w3.org/2000/svg" xmlns:xlink="http://www.w3.org/1999/xlink">
    <g id="Facebook-white" stroke="none" stroke-width="1" fill="none" fill-rule="evenodd">
        <g id="facebook" transform="translate(51.000000, 51.000000)" fill="#FFFFFF">
            <path d="M410,22.6049107 L410,387.303571 C410,399.841518 399.841518,409.908482 387.395089,409.908482 L282.881696,409.908482 L282.881696,251.216518 L336.145089,251.216518 L344.107143,189.350446 L282.790179,189.350446 L282.790179,149.814732 C282.790179,131.877232 287.732143,119.705357 313.448661,119.705357 L346.212054,119.705357 L346.212054,64.3370536 C340.537946,63.6049107 321.136161,61.8660714 298.439732,61.8660714 C251.216518,61.8660714 218.819196,90.6941964 218.819196,143.683036 L218.819196,189.350446 L165.372768,189.350446 L165.372768,251.216518 L218.819196,251.216518 L218.819196,410 L22.6049107,410 C10.1584821,410 0,399.841518 0,387.395089 L0,22.6049107 C0,10.1584821 10.1584821,0 22.6049107,0 L387.303571,0 C399.841518,0 410,10.1584821 410,22.6049107 Z" id="Path"></path>
        </g>
    </g>
</svg>