<?xml version="1.0" encoding="UTF-8"?>
<svg width="512px" height="512px" viewBox="0 0 512 512" version="1.1" xmlns="http://www.w3.org/2000/svg" xmlns:xlink="http://www.w3.org/1999/xlink">
    <!-- Generator: Sketch 52.6 (67491) - http://www.bohemiancoding.com/sketch -->
    <title>Instagram white</title>
    <desc>Created with Sketch.</desc>
    <g id="Instagram-white" stroke="none" stroke-width="1" fill="none" fill-rule="evenodd">
        <g id="instagram" transform="translate(51.000000, 51.000000)" fill="#FFFFFF">
            <path d="M204.959333,37.0138889 C259.696489,37.0138889 266.121801,37.2579365 287.756398,38.234127 C307.764332,39.047619 318.662964,42.4642857 325.820274,45.3115079 C335.417576,49.0535714 342.249554,53.4464286 349.406864,60.6051587 C356.564174,67.7638889 361.037493,74.5972222 364.697481,84.1964286 C367.462805,91.5178571 370.878794,102.255952 371.773458,122.267857 C372.830788,143.906746 373.074787,150.333333 373.074787,205.081349 C373.074787,259.829365 372.830788,266.337302 371.854791,288.05754 C371.820584,301.038042 369.451281,313.90646 364.860147,326.047619 C361.118826,335.646825 356.72684,342.480159 349.56953,349.638889 C342.41222,356.797619 335.580242,361.271825 325.98294,364.93254 C318.662964,367.698413 307.926999,371.115079 287.919064,372.009921 C266.284467,372.986111 259.859155,373.230159 205.122,373.230159 C150.384844,373.230159 143.959532,372.986111 122.324936,372.009921 C102.317001,371.196429 91.4183694,367.779762 84.2610593,364.93254 C74.6637572,361.190476 67.8317794,356.797619 60.6744694,349.638889 C53.5171593,342.480159 49.0438405,335.646825 45.3838524,326.047619 C42.6185281,318.72619 39.2025392,307.988095 38.3078754,287.97619 C37.2505455,266.255952 37.0065463,259.829365 37.0065463,205 C37.0065463,150.170635 37.2505455,143.988095 38.2265424,122.267857 C39.039873,102.255952 42.2931958,91.3551587 45.2211863,84.1964286 C48.9625074,74.5972222 53.3544932,67.7638889 60.5118032,60.6051587 C67.6691133,53.4464286 74.5010911,48.9722222 84.0983932,45.3115079 C91.4183694,42.5456349 102.154334,39.1289683 122.162269,38.234127 C149.742264,36.9787129 177.354331,36.5717746 204.959333,37.0138889 Z M204.959333,0 C149.327514,0 142.33287,0.325396825 120.372942,1.3015873 C98.6570125,2.27777778 83.7730609,5.77579365 70.7597699,10.8194444 C57.2584805,16.0257937 45.8718508,23.0218254 34.4852212,34.4107143 C23.0985915,45.7996032 16.1039476,57.4325397 10.8986312,70.7738095 C5.69331482,83.7896825 2.19599286,98.6765873 1.21999603,120.559524 C0.325332275,142.361111 0,149.357143 0,205 C0,260.642857 0.325332275,267.638889 1.3013291,289.603175 C2.27732593,311.323413 5.77464789,326.210317 10.8172982,339.22619 C15.9047491,352.937378 23.9590154,365.35452 34.4038881,375.589286 C45.7905178,386.978175 57.3398135,393.974206 70.7597699,399.180556 C86.6764315,405.219206 103.515241,408.466548 120.535608,408.779762 C142.495537,409.755952 149.327514,410 205.122,410 C260.916485,410 267.748463,409.755952 289.545725,408.779762 C311.342988,407.803571 326.145606,404.305556 339.321563,399.261905 C352.822853,394.055556 364.209482,387.059524 375.596112,375.670635 C386.982742,364.281746 393.977385,352.730159 399.182702,339.30754 C404.306685,326.291667 407.804007,311.486111 408.780004,289.684524 C409.756001,267.720238 410,260.805556 410,205.081349 C410,149.357143 409.837334,142.44246 408.861337,120.478175 C407.88534,98.7579365 404.388018,83.8710317 399.345368,70.8551587 C394.165197,57.1518468 386.060624,44.7427276 375.596112,34.4920635 C364.209482,23.1031746 352.822853,16.1071429 339.321563,10.9007937 C326.308272,5.69444444 311.505654,2.11507937 289.545725,1.13888889 C267.585796,0.406746032 260.591153,0 204.959333,0 Z" id="Shape" fill-rule="nonzero"></path>
            <path d="M205.418533,100.000032 C147.152509,100.045025 99.9550391,147.315444 100.000032,205.581467 C100.045025,263.847491 147.315444,311.044961 205.581467,310.999968 C263.847491,310.954975 311.044961,263.684556 310.999968,205.418533 C310.954975,147.152509 263.684556,99.9550391 205.418533,100.000032 Z M205.418533,273.850944 C167.624356,273.850944 136.986121,243.21271 136.986121,205.418533 C136.986121,167.624356 167.624356,136.986121 205.418533,136.986121 C243.21271,136.986121 273.850944,167.624356 273.850944,205.418533 C273.850944,243.21271 243.21271,273.850944 205.418533,273.850944 Z" id="Shape" fill-rule="nonzero"></path>
            <circle id="Oval" cx="314.5" cy="95.5" r="24.5"></circle>
        </g>
    </g>
</svg>