<?xml version="1.0" encoding="UTF-8"?>
<svg width="512px" height="512px" viewBox="0 0 512 512" version="1.1" xmlns="http://www.w3.org/2000/svg" xmlns:xlink="http://www.w3.org/1999/xlink">
    <g id="LinkedIn-black" fill="none" fill-rule="evenodd">
        <g id="linkedin" transform="translate(51.000000, 51.000000)" fill="#000" fill-rule="nonzero">
            <path d="M349.393681,349.365556 L288.605134,349.365556 L288.605134,254.207593 C288.605134,231.513333 288.202711,202.327407 257.003593,202.327407 C225.356495,202.327407 220.527427,227.064074 220.527427,252.582778 L220.527427,349.365556 L159.738879,349.365556 L159.738879,153.704444 L218.067336,153.704444 L218.067336,180.460741 L218.902552,180.460741 C227.019334,165.070556 246.859513,148.852778 276.44135,148.852778 C338.027149,148.852778 349.393681,189.366852 349.393681,242.051852 L349.393681,349.365556 Z M60.7657691,349.365556 L60.7657691,153.704444 L121.599874,153.704444 L121.599874,349.365556 L60.7657691,349.365556 Z M91.1828216,126.970926 C71.6919145,126.970926 55.9367014,111.170741 55.9367014,91.7185185 C55.9367014,72.2435185 71.6919145,56.4433333 91.1828216,56.4433333 C110.620579,56.4433333 126.421349,72.2435185 126.421349,91.7185185 C126.421349,111.170741 110.620579,126.970926 91.1828216,126.970926 Z M379.674062,0 L30.2576021,0 C13.5684655,0 0,13.2414815 0,29.5655556 L0,380.419259 C0,396.743333 13.5684655,410 30.2576021,410 L379.674062,410 C396.401163,410 410,396.743333 410,380.419259 L410,29.5655556 C410,13.2414815 396.401163,0 379.674062,0 Z" id="Shape"></path>
        </g>
    </g>
</svg>