<?xml version="1.0" encoding="UTF-8"?>
<svg width="512px" height="512px" viewBox="0 0 512 512" version="1.1" xmlns="http://www.w3.org/2000/svg" xmlns:xlink="http://www.w3.org/1999/xlink">
    <!-- Generator: Sketch 55.1 (78136) - https://sketchapp.com -->
    <title>totes-africa</title>
    <desc>Created with Sketch.</desc>
    <g id="totes-africa" stroke="none" stroke-width="1" fill="none" fill-rule="evenodd">
        <path d="M124.9,251.8 C127.3,235.2 131.3,215.8 136.3,200.8 C123.5,216.2 109.1,235.4 96.5,255 C100.5,254.6 104.5,254.2 108.3,253.6 C115.1,252.8 119.5,252 124.9,251.8 Z M130.7,298.8 C126.3,296.6 122.5,291.4 122.3,279.8 C122.3,276.2 122.3,271.6 122.9,266.4 L108.9,267.8 C100.9,268.6 93.1,269.4 87.5,269.2 C82.1,278.6 77.7,288.6 73.1,296.8 C70.7,301 67.3,300.2 65.9,297.4 C64.7,295 63.5,293.2 63.5,290 C63.5,286.8 64.3,282.2 66.7,276.4 C67.9,273.4 69.3,270 71.5,265.8 C67.9,263.2 66.1,260.4 65.5,259.2 C63.9,255.4 64.7,254.2 69.9,255 C72.7,255.4 74.3,255.6 77.1,255.8 C92.1,229.6 119.7,191 140.7,173.2 C145.1,169.6 148.1,169.8 151.1,173.8 C153.1,176.4 154.3,178.6 155.7,182 C156.7,184.4 157.3,186.6 157.3,189 C157.3,191.4 156.9,194.2 155.7,197.2 C151.1,211.6 145.5,232.4 141.7,253.4 C147.1,255.8 149.1,259.6 150.5,263.8 C151.5,267 150.1,267.8 146.5,267.2 L139.5,266 C138.3,276 137.3,286.2 136.9,296 C136.9,299.6 134.3,300.4 130.7,298.8 Z M206.7,204.6 C192.7,227.6 183.1,243.8 175.3,259.4 C185.9,263.2 187.9,280 187.5,286 C197.7,277.2 207.7,259.2 214.9,239.2 C210.7,237 209.1,233.8 209.1,229.8 C209.1,219.4 221.5,204.8 227.9,204.8 C232.1,204.8 234.1,207.6 234.1,212.4 C234.1,216.6 233.1,222.6 230.9,229 C236.5,228 241.9,225.2 248.5,220.4 C252.1,217.8 254.5,217 257.1,220 C259.9,223.4 263.3,228.8 263.3,233.8 C263.3,236.2 262.3,238.8 259.9,241.6 C250.9,251.2 241.5,264.8 238.1,275 C237.1,278 236.5,280.8 236.5,283.8 C236.5,288.8 238.3,292.4 241.1,292.4 C247.7,292.4 259.1,280.4 265.5,266.2 C267.1,262 269.9,261.6 272.3,266.2 C273.3,268.4 273.7,273.6 271.3,279.6 C266.3,291.8 251.5,300.2 239.7,300.2 C227.1,300.2 220.1,291.2 220.1,279.8 C220.1,276.6 220.7,273.2 222.1,269 C225.3,258.8 233.9,246.8 241.5,237.6 C237.5,239 230.3,240.8 226.7,241 C218.5,264.4 204.1,288.2 186.3,296.2 C182.7,316.4 173.1,339 163.3,351.2 C159.1,356.4 155.1,358.4 151.1,358.4 C147.3,358.4 144.3,356.4 141.3,354 C136.7,350.2 131.9,344.2 131.9,332.4 C131.9,330.2 132.1,327.4 132.5,325 C139.1,281.8 183.1,206.2 205.1,174 C208.1,169.4 211.7,170 213.5,174.4 C214.3,176.8 214.9,179.4 214.9,181.8 C214.9,187.2 212.5,195.2 206.7,204.6 Z M171.3,266.8 C170.1,266.8 168.7,276.6 168.7,281.2 C168.7,285.2 169.1,288.6 170.3,290.2 C171.1,286 171.5,282 171.7,278.2 C172.1,272.2 171.9,266.8 171.3,266.8 Z M146.3,340.2 C146.3,344 146.9,345.6 148.1,345.6 C151.9,345.6 162.9,321.2 168.3,298.6 C164.5,298 161.5,296.4 159.3,294.2 C151.7,313.2 146.3,330.8 146.3,340.2 Z M295.5,208.8 C295.5,203.2 299.7,198 304.3,198 C309.9,198 315.3,205.2 315.3,211 C315.3,216.4 312.3,221 307.3,221 C300.9,221 295.5,215 295.5,208.8 Z M310.3,279 C304.3,291.6 290.5,300 278.7,300 C266.5,300 261.1,293 261.1,283 C261.1,279.2 261.9,275 263.5,269.8 C268.5,255.8 281.3,232.6 288.7,222.2 C291.7,218.2 294.1,217.8 296.7,220.8 C300.5,224.8 302.1,233.4 296.9,243.4 C293.1,252 283.9,267 280.5,275 C278.7,279.6 277.7,283.8 277.7,287 C277.7,290.2 278.5,292 280.7,292 C288.7,292 299.1,278.6 305.3,265 C306.9,261.4 309.5,261.8 311.3,265.4 C313.1,268.8 312.9,273.8 310.3,279 Z M347.5,217.8 C354.9,217.8 363.3,224.6 366.5,230.6 C369.5,237.2 366.3,244.6 362.5,252.4 C360.9,255.4 359.7,258.4 358.9,260.6 C357.5,264.4 355.7,264.8 351.7,262.8 C348.1,260.6 344.7,256.8 344.7,251.4 C344.7,248.8 345.7,244.8 349.3,236.6 C351.3,232.6 352.7,229 351.9,228.2 C349.5,226.2 336.5,239.2 328.5,255.4 C324.5,263.6 322.5,271.8 322.5,277.8 C322.5,286.6 326.1,292 331.5,292.2 C346.5,292.4 360.3,277 368.3,265 C370.1,262 373.1,261.2 374.3,264.6 C375.3,267.2 375.3,272.4 371.7,278 C364.1,290 347.9,299.8 332.3,300 C313.9,300.2 303.7,288.4 303.7,272.4 C303.7,265.2 305.7,257.2 309.9,249.2 C320.1,228.6 335.9,217.8 347.5,217.8 Z M376.5,249.6 C392.5,226.6 408.9,217.2 419.1,217.2 C426.3,217.2 430.7,220.8 432.5,226 L436.3,219.8 C438.7,215.8 442.1,215.6 444.5,218.4 C447.9,222.4 449.7,231.2 444.5,241.6 C439.3,252.6 422.5,274.4 422.5,287.8 C422.5,290.8 423.3,292.6 425.3,292.6 C432.5,292.6 442.5,279 449.1,266 C451.3,262 453.1,261.8 455.1,266 C455.9,267.8 457.1,273.2 454.3,279 C449.1,290 436.3,300.6 424.1,300.6 C414.1,300.6 408.3,295.4 406.7,288 C400.9,293.6 391.9,299.8 383.9,299.8 C372.1,299.8 365.7,291.2 365.7,279.4 C365.7,270.8 369.3,259.6 376.5,249.6 Z M386.5,291 C393.1,291 402.3,278.8 412.1,262 C419.9,248.4 423.5,238.6 423.5,233.4 C423.5,231 423.1,229.6 421.1,229.6 C417.1,229.6 403.3,242.2 393.1,258.6 C387.1,268 383.7,278.6 383.7,285 C383.7,288.6 384.5,291 386.5,291 Z" id="Afica" fill="#FF4400" fill-rule="nonzero" transform="translate(259.777038, 264.521053) rotate(-10.000000) translate(-259.777038, -264.521053) "></path>
        <path d="M210.206061,128.000027 L209.366062,133.240022 L200.60607,133.240022 L197.006074,156 L191.00608,156 L194.606076,133.240022 L185.846085,133.240022 L186.686084,128.000027 L210.206061,128.000027 Z M225.795638,156.719999 C217.715646,156.719999 213.19565,151.840004 213.19565,144.160011 C213.19565,134.200027 219.235645,127.200027 228.355636,127.200027 C236.395628,127.200027 240.875624,132.160023 240.875624,139.800015 C240.875624,149.800006 234.87563,156.719999 225.795638,156.719999 Z M226.195638,151.560004 C231.315633,151.560004 234.71563,146.880009 234.71563,140.200015 C234.71563,135.40002 232.315632,132.360023 227.955636,132.360023 C222.755641,132.360023 219.355644,137.080018 219.355644,143.760012 C219.355644,148.560007 221.755642,151.560004 226.195638,151.560004 Z M271.905192,128.000027 L271.065193,133.240022 L262.305201,133.240022 L258.705204,156 L252.70521,156 L256.305207,133.240022 L247.545215,133.240022 L248.385214,128.000027 L271.905192,128.000027 Z M297.37476,132.880022 L284.934772,132.880022 L283.894773,139.400016 L295.294762,139.400016 L294.534763,144.240011 L283.094774,144.240011 L282.014775,151.120005 L294.774763,151.120005 L293.974763,156 L275.254781,156 L279.694777,128.000027 L298.174759,128.000027 L297.37476,132.880022 Z M311.164339,156.759999 C307.364342,156.759999 304.084345,156.04 302.044347,155.000001 L302.924346,149.480006 C305.164344,150.920005 308.124342,151.760004 311.684338,151.760004 C315.884334,151.760004 318.084332,150.640005 318.084332,148.120008 C318.084332,146.160009 316.804333,145.20001 312.164338,144.040011 C307.444342,142.800013 305.004345,140.520015 305.004345,136.320019 C305.004345,130.280025 309.60434,127.200027 317.084333,127.200027 C320.00433,127.200027 322.844327,127.600027 325.324325,128.640026 L324.484326,133.720021 C322.004328,132.720022 319.444331,132.200027 316.524334,132.200027 C312.724337,132.200027 310.724339,133.200027 310.724339,135.52002 C310.724339,137.120018 311.884338,137.920017 315.684334,138.960016 C321.364329,140.480015 323.924326,142.800013 323.924326,147.160008 C323.924326,153.640002 319.364331,156.759999 311.164339,156.759999 Z" id="TOTES" fill="#767676" fill-rule="nonzero"></path>
    </g>
</svg>